<svg width="1093" height="362" viewBox="0 0 1093 362" fill="none" xmlns="http://www.w3.org/2000/svg">
<g clip-path="url(#clip0_1_2887)">
<path d="M978.536 129.543C979.361 156.263 978.64 183.83 978.617 210.63L978.571 238.815C978.569 241.716 979.982 253.514 976.433 254.987C974.564 254.987 975.292 255.119 973.824 254.479C972.529 252.033 973.023 236.526 973.019 232.78L972.982 153.51L973.099 121.358C973.111 118.511 971.819 110.367 974.136 108.337C975.741 107.795 974.99 107.882 976.835 107.992C979.105 109.254 978.248 126.116 978.536 129.543Z" fill="#B7140E"/>
<path d="M104.817 229.878C104.412 228.272 104.849 222.156 104.86 220.089L104.887 197.33L104.839 129.126C104.908 125.387 104.897 121.648 104.812 117.91C104.727 115.097 104.316 111.573 104.956 108.794C105.073 108.27 105.415 108.305 106.429 107.983C107.406 107.984 107.785 107.88 108.318 108.16C109.524 108.791 109.941 110.762 109.935 111.591C109.909 118.16 109.887 124.786 109.882 131.349L109.877 172.862L109.893 206.947C109.903 212.562 110.368 220.466 109.626 225.909C109.236 227.653 106.338 227.667 104.817 229.878Z" fill="#B7140E"/>
<path d="M689.947 38.997C689.588 39.465 689.418 39.5833 688.933 40.0092C688.18 40.075 687.376 40.1442 686.612 40.1538C672.574 40.3314 658.483 40.2715 644.444 40.2718L566.697 40.2697L453.638 40.2336C435.135 40.2293 416.573 40.2898 398.07 40.2453C396.341 40.2413 395.097 40.2219 393.752 39.6287L394.601 38.8346C397.808 38.1215 438.299 38.4559 445.141 38.4557L534.465 38.404L608.155 38.3872C619.726 38.3674 683.469 37.7794 689.947 38.997Z" fill="#C41B13"/>
<path d="M689.646 324.729C689.202 325.357 689.244 325.32 688.366 325.821C686.531 326.192 685.347 326.116 683.34 326.139C661.921 326.301 640.499 326.328 619.08 326.219L506.105 326.206L433.31 326.214C421.408 326.216 409.288 326.238 397.371 326.171C395.764 326.163 394.831 325.768 393.715 325.238C393.87 325.108 394.468 324.805 394.702 324.681C398.929 324.304 417.224 324.397 422.273 324.394L478.06 324.384L685.318 324.447C687.164 324.458 687.932 324.4 689.646 324.729Z" fill="#C41B13"/>
<path d="M148.729 34.8491C148.201 38.1265 148.686 45.1649 148.862 48.6396C144.902 48.4399 138.759 48.5616 134.463 48.4895C132.478 47.6777 131.09 41.0954 136.422 40.6053C137.874 40.8753 137.815 40.844 138.824 41.4195C138.663 42.3275 136.502 43.8949 135.717 46.618C138.76 46.6315 142.047 46.7471 145.105 46.8246C144.449 43.5976 144.785 39.7829 145.255 36.5453C138.439 36.6257 131.619 36.631 124.803 36.5613C124.857 38.5572 125.695 47.3783 124.003 48.708L122.007 48.9273C115.645 48.69 107.998 48.8218 101.988 48.4725L101.081 48.8173C99.7093 48.0182 99.6133 47.8058 98.8981 46.8071C105.665 47.1404 113.543 46.7917 120.753 47.0542C122.893 46.4824 121.649 36.5446 120.972 35.0186C130.226 35.0557 139.48 34.9992 148.729 34.8491Z" fill="#B7140E"/>
<path d="M350.907 38.8311C350.309 39.9017 350.784 39.6991 349.317 40.1534C332.42 40.649 307.401 40.2693 289.96 40.2716L256.204 40.2783C252.687 40.2777 238.901 40.5284 236.735 39.8508C237.071 39.1639 237.028 39.1944 237.903 38.642C241.661 38.2254 271.83 38.3678 277.904 38.3699L323.961 38.3946C328.177 38.3983 348.586 38.1662 350.907 38.8311Z" fill="#C41B13"/>
<path d="M846.527 39.2425C845.712 39.7872 845.372 40.2444 843.809 40.251C839.446 40.269 834.837 40.2537 830.493 40.2454C820.85 40.2165 811.208 40.2136 801.565 40.237L757.5 40.2778C750.057 40.2823 742.387 40.3279 734.935 40.2375C733.384 40.2187 732.513 39.9832 731.331 39.5034C731.949 38.8627 732.339 38.5704 733.838 38.5336C741.007 38.358 748.201 38.3742 755.378 38.3607C769.551 38.3288 783.724 38.3447 797.896 38.4079C812.858 38.4561 828.073 38.2999 843.022 38.4797C845.132 38.5052 845.081 38.6412 846.527 39.2425Z" fill="#C41B13"/>
<path d="M846.218 324.511C846.154 324.769 845.866 325.967 845.104 325.981C812.79 326.543 780.137 326.092 747.72 326.248C743.592 326.267 735.717 326.418 732.185 325.896L732.155 325.132L733.063 324.71C736.088 324.342 749.35 324.384 753.024 324.384L789.181 324.387L825.455 324.379C831.55 324.379 840.272 324.262 846.218 324.511Z" fill="#C41B13"/>
<path d="M985.969 304.87C985.539 308.074 985.524 315.072 986.161 318.244C978.029 318.25 969.112 318.348 961.048 318.122C961.285 320.955 961.642 327.338 961.077 329.963C960.446 329.552 958.651 328.155 958.159 328.03C957.304 326.702 957.73 319.008 957.529 316.677C965.871 316.64 974.173 316.566 982.511 316.733C982.629 313.359 982.008 309.864 982.582 306.53C975.113 306.655 968.919 306.61 961.493 306.501C961.724 307.838 961.683 309.328 961.705 310.683L968.791 310.763C969.867 310.264 972.076 308.983 973.164 308.392L973.194 312.349C968.184 312.378 962.963 312.569 957.942 312.717C958.178 310.034 958.55 307.612 957.883 304.944C967.529 304.806 975.53 305.141 985.969 304.87Z" fill="#B7140E"/>
<path d="M350.95 324.726L350.176 325.771C348.068 326.341 247.676 326.344 237.626 326.047C237.349 325.164 237.162 325.429 237.941 324.816C242.99 323.856 284.388 324.604 293.013 324.572C300.965 324.546 346.36 323.88 350.95 324.726Z" fill="#C41B13"/>
<path d="M983.68 35.0284C984.602 34.9146 984.692 34.961 985.648 35.0302C987.071 36.107 986.347 40.0303 986.219 41.4603C986.247 42.2254 986.371 43.5761 986.279 44.2916C979.69 44.0394 974.218 44.3651 967.953 44.3009C968.033 41.3455 968.297 37.8419 967.872 34.9385C973.141 34.9822 978.41 35.0122 983.68 35.0284ZM971.124 36.5618C971.242 38.5654 971.405 40.3414 971.092 42.3469C973.417 42.2591 982.589 42.4638 983.419 41.7027C982.979 39.8954 982.808 38.3882 983.796 36.6275C979.745 36.6146 975.128 36.6488 971.124 36.5618Z" fill="#B7140E"/>
<path d="M983.68 35.0283C984.602 34.9146 984.692 34.961 985.648 35.0302C987.071 36.1069 986.347 40.0303 986.219 41.4603C985.132 42.1347 985.42 42.428 985.552 43.4304L983.908 43.4108L983.922 43.2485C983.951 42.7993 983.931 42.0877 983.419 41.7026C982.979 39.8953 982.808 38.3882 983.796 36.6275C983.117 35.5577 983.006 35.9226 983.68 35.0283Z" fill="#C41B13"/>
<path d="M115.758 36.0242C115.827 37.568 116.51 42.9051 115.24 44.0055C114.322 44.242 100.782 44.2903 98.0657 44.4343C98.1244 41.2275 98.039 38.0204 97.8042 34.8154C101.732 34.9979 113.169 34.6773 115.683 35.2238L115.758 36.0242ZM101.257 36.6124C101.343 38.4378 101.545 40.5533 101.407 42.3556C102.639 42.3026 104.892 42.1697 106.039 42.2222C108.302 42.1284 110.373 42.2851 112.63 42.4084L112.635 36.5949C109.209 36.6196 104.587 36.7206 101.257 36.6124Z" fill="#B7140E"/>
<path d="M115.758 36.0244C115.827 37.5682 116.51 42.9053 115.24 44.0057C112.438 41.7708 109.54 43.1822 106.039 42.2224C108.302 42.1286 110.373 42.2853 112.63 42.4086L112.635 36.5951L115.758 36.0244Z" fill="#970F0B"/>
<path d="M116.115 321.069C115.854 323.002 116.318 329.126 115.197 330.179C112.673 330.574 101.535 330.433 98.0658 330.494C98.1085 328.301 97.0945 322.745 98.3594 321.223C99.5442 320.857 99.1439 320.968 100.809 321.016C104.705 321.459 112.043 321.244 116.115 321.069ZM101.481 322.628C101.135 323.339 101.348 327.593 101.289 328.646C104.481 328.571 109.487 328.481 112.529 328.837C112.806 326.832 112.705 324.774 112.678 322.761C109.465 322.944 104.55 323.204 101.481 322.628Z" fill="#B7140E"/>
<path d="M116.115 321.069C115.854 323.002 116.318 329.125 115.197 330.178L114.914 329.582C113.223 329.263 113.484 329.449 112.529 328.836C112.806 326.831 112.705 324.774 112.678 322.761C109.465 322.944 104.55 323.204 101.481 322.628L101.951 322.249H99.9231L100.131 322.238L99.9017 321.96L101.22 321.61L101.359 321.342L100.809 321.016C104.705 321.459 112.043 321.244 116.115 321.069Z" fill="#970F0B"/>
<path d="M109.625 225.908C110.565 229.99 109.577 234.917 109.887 239.122C110.223 243.692 109.908 248.481 109.748 253.06C109.711 253.765 109.001 254.362 108.147 254.915L107.128 255.166C105.548 254.662 105.377 253.944 105.228 253.02C104.027 245.424 105.591 237.457 104.817 229.878C106.338 227.666 109.236 227.652 109.625 225.908Z" fill="#B7140E" fill-opacity="0.988235"/>
<path d="M960.461 34.9648C959.276 35.1372 959.077 35.1378 957.994 35.464C960.116 35.7082 959.866 35.504 961.017 36.167C961.094 36.581 961.335 36.9714 961 37.2596L959.93 36.342L959.092 36.5322C952.735 36.7298 945.646 36.6343 939.223 36.6136C939.878 40.0472 939.596 43.2415 939.131 46.6759C942.045 46.7 944.959 46.7382 947.871 46.791C947.804 46.2996 947.449 43.2988 946.985 43.0134C946.266 42.5721 945.124 42.6628 944.27 41.5965L944.815 41.1422C946.491 40.829 946.699 40.821 948.449 41.0083C952.14 42.072 951.943 47.0909 950.439 48.4641L948.948 48.6522C944.954 48.3904 939.6 48.467 935.63 48.7665C935.916 44.1326 936.283 39.6117 935.326 34.9869L960.461 34.9648Z" fill="#B7140E"/>
<path d="M148.43 316.582L148.782 330.47C141.754 330.21 129.703 330.568 122.215 330.393C121.98 330.271 121.751 330.149 121.516 330.027C122.845 329.714 124.643 329.396 125.439 328.829C131.549 328.428 139.069 328.521 145.308 328.532C144.694 324.917 144.502 321.819 145.425 318.205C141.588 318.205 136.651 317.743 135.605 319.989C136.294 321.697 138.642 322.564 138.439 323.652C136.694 324.188 135.878 323.983 133.519 323.973C132.953 321.429 133.022 319.321 133.044 316.762C138.172 316.73 143.301 316.672 148.43 316.582Z" fill="#B7140E"/>
<path d="M222.469 38.8568C221.999 39.6148 222.069 39.5901 220.91 40.1184C216.7 40.5011 198.426 40.4881 194.012 40.3621C186.695 40.1536 158.303 40.9466 152.977 39.6458C153.26 39.4265 153.863 38.9618 154.29 38.9292C163.309 38.2344 217.521 38.1835 222.469 38.8568Z" fill="#C41B13"/>
<path d="M930.418 39.185C929.893 39.6322 929.467 40.2087 928.275 40.2342C921.651 40.2323 910.724 40.589 904.6 40.3501C898.049 40.0947 865.106 40.9847 860.892 39.6603C864.497 37.9176 926.969 37.9707 930.418 39.185Z" fill="#C41B13"/>
<path d="M931.169 324.67C930.667 325.37 930.127 326.105 928.436 326.094C919.901 326.044 866.027 327.102 861.539 325.604C861.967 325.015 861.656 325.291 862.736 324.819C872.216 324.081 892.161 324.535 902.645 324.45C908.615 324.4 925.846 324.389 931.169 324.67Z" fill="#C41B13"/>
<path d="M222.384 324.885C222.021 325.513 221.914 325.527 221.156 326.036C218.088 326.71 158.261 326.826 153.906 326.084L153.538 325.251C155.624 324.442 215.12 324.816 222.384 324.885Z" fill="#C41B13"/>
<path d="M978.127 62.5728C978.613 66.2599 978.938 94.5644 977.14 96.3439L976.124 96.3831L975.585 95.7633C974.981 88.8217 975.577 81.5345 975.339 74.5475C975.212 70.8339 975.248 66.6904 975.456 62.9603C975.47 62.7166 975.828 62.6903 976.455 62.4487L978.127 62.5728Z" fill="#B7140E"/>
<path d="M108.227 62.5145C108.745 69.1151 108.798 88.7376 107.4 95.9837C107.352 96.2513 106.845 96.2267 106.215 96.2879L105.746 95.7551C105.014 86.5288 105.585 72.5463 105.521 62.8664C105.516 62.5113 105.97 62.4986 106.717 62.2949L108.227 62.5145Z" fill="#B7140E"/>
<path d="M108.12 271.378C108.851 273.277 108.483 282.31 108.344 284.519C108.147 287.728 109.252 300.616 107.245 302.555L106.407 302.531C105.537 302.025 105.654 301.298 105.564 300.598C105.414 297.275 104.961 270.055 106.055 269.042L106.957 269.071C108.35 269.991 107.917 270.025 108.12 271.378Z" fill="#B7140E"/>
<path d="M978.005 271.826C978.185 275.576 978.828 300.656 976.324 302.075C975.026 300.99 975.231 300.155 975.057 298.861C975.32 295.233 974.454 269.187 976.055 268.238L976.857 268.516C978.261 269.513 977.989 270.59 978.005 271.826Z" fill="#C41B13"/>
<path d="M950.465 316.491C950.19 318.488 951.606 322.986 948.983 324.315C947.248 324.455 947.172 324.439 945.432 324.238C944.686 323.561 945.913 322.554 946.36 321.724C947.034 320.472 947.072 319.501 947.048 318.21C944.361 318.186 941.309 318.021 938.599 317.905C938.577 319.374 937.969 327.99 938.165 328.709C937.07 329.221 936.418 329.531 935.209 329.971C934.379 327.327 934.702 319.796 934.609 316.674C939.747 316.687 945.298 316.563 950.465 316.491Z" fill="#B7140E"/>
<path d="M125.438 328.829C124.643 329.396 122.845 329.714 121.516 330.027C121.991 326.362 121.35 322.44 122.028 318.809L121.302 318.242C115.186 317.855 104.811 318.512 98.2095 318.213C100.088 317.682 100.195 317.271 101.118 316.192L101.518 316.542C103.162 316.972 122.156 316.561 124.937 316.515C124.542 317.887 124.67 320.276 124.659 321.729C124.713 323.23 124.355 327.882 125.438 328.829Z" fill="#B7140E"/>
<path d="M986.02 320.604C985.765 322.93 986.62 327.486 985.209 329.656C985.001 329.974 984.045 329.961 983.168 330.048C983.115 329.51 982.872 329.051 982.644 328.526C981.878 326.418 982.015 324.869 982.527 322.737C978.52 322.891 975.231 322.912 971.238 322.92C968.627 322.426 968.668 322.339 968.294 320.891C973.317 321.023 981 320.806 986.02 320.604Z" fill="#B7140E"/>
<path d="M983.347 58.1461C984.598 59.2295 982.917 59.4305 984.667 60.4995C977.243 60.4963 969.819 60.5287 962.396 60.596C960.846 60.2447 960.658 60.2425 959.629 59.6031L960.041 59.0799C961.495 58.7664 961.515 58.6235 961.909 57.874C962.568 58.5134 963.499 58.5983 964.862 58.5277C968.104 58.3601 981.609 58.9553 983.347 58.1461Z" fill="#B7140E"/>
<path d="M962.729 47.2018L963.042 48.3405L961.483 48.9563L959.29 48.7887C958.357 48.104 958.855 37.868 959.093 36.5322L959.93 36.342L961.001 37.2596C961.335 36.9714 961.094 36.581 961.017 36.167C959.867 35.504 960.116 35.7082 957.994 35.464C959.077 35.1378 959.276 35.1372 960.462 34.9648L961.681 34.9985C963.616 36.2283 961.824 45.8872 962.729 47.2018Z" fill="#C41B13"/>
<path d="M124.26 60.473C119.659 60.472 102.224 60.3537 99.1283 60.7425C99.4645 59.3886 99.8114 59.0693 101.215 57.8828L101.471 58.1732C103.083 58.7784 117.066 58.3522 122.242 58.8771C122.942 59.2881 123.689 59.9845 124.26 60.473Z" fill="#B7140E"/>
<path d="M958.3 52.7155C962.227 52.6354 973.104 51.9077 974.758 53.8659C974.218 54.8021 974.624 54.57 973.337 55.166C968.402 54.4099 967.387 54.32 962.281 53.9906C962.35 55.4815 962.205 56.3824 961.909 57.8742C961.515 58.6236 961.495 58.7666 960.041 59.0801L959.629 59.6033C960.658 60.2427 960.846 60.2448 962.396 60.5962C960.925 60.6827 960.981 60.6967 959.559 60.5185C958.015 59.5436 958.777 54.8384 958.3 52.7155Z" fill="#C41B13"/>
<path d="M121.713 304.955C122.311 305.778 122.103 305.544 121.66 306.541C119.013 306.589 102.298 306.563 101.54 306.817C101.209 307.732 101.225 307.966 101.321 308.899C98.8927 307.255 100.649 306.199 98.1296 304.953C100.494 304.653 117.833 304.955 121.713 304.955Z" fill="#B7140E"/>
<path d="M124.723 52.4429C124.627 54.294 125.097 59.1766 124.259 60.4732C123.688 59.9847 122.941 59.2883 122.242 58.8772C121.399 57.1794 122.301 55.4781 121.388 54.2412C119.563 54.2433 114.557 54.1667 112.705 54.429C112.251 54.4926 112.561 55.2535 110.719 55.759C109.46 55.3338 108.713 54.1253 109.284 53.4191C112.283 52.401 119.814 52.8295 124.723 52.4429Z" fill="#B7140E"/>
<path d="M101.082 48.8174C101.471 50.6772 101.733 56.0499 101.215 57.883C99.8114 59.0695 99.4645 59.3888 99.1283 60.7427L98.7494 60.653C97.3938 59.7028 97.7407 49.068 97.9275 47.2405L98.8988 46.8071C99.614 47.8059 99.71 48.0183 101.082 48.8174Z" fill="#C41B13"/>
<path d="M984.539 46.6636L985.846 46.9399C986.749 48.5179 986.49 58.0325 986.11 60.0494C985.361 60.514 985.829 60.37 984.667 60.4994C982.917 59.4304 984.598 59.2294 983.347 58.146C982.774 56.2575 982.764 50.6079 983.516 48.7982C983.766 47.8541 983.798 47.5334 984.539 46.6636Z" fill="#C41B13"/>
<path d="M984.539 46.6636C983.798 47.5334 983.766 47.8541 983.516 48.7982C978.059 48.7547 966.644 48.6351 961.483 48.9562L963.042 48.3404L962.729 47.2017C968.699 46.6172 978.909 47.3011 984.539 46.6636Z" fill="#B7140E"/>
<path d="M101.321 308.898C101.401 310.903 101.721 314.293 101.118 316.191C100.195 317.271 100.088 317.682 98.2096 318.212C97.6492 317.082 97.7292 306.169 98.1295 304.952C100.649 306.199 98.8927 307.254 101.321 308.898Z" fill="#C41B13"/>
<path d="M961.076 329.964C956.98 329.958 937.633 330.266 935.209 329.972C936.417 329.531 937.07 329.221 938.165 328.709C943.6 328.224 955.702 329.08 958.159 328.03C958.651 328.155 960.445 329.553 961.076 329.964Z" fill="#970F0B"/>
<path d="M121.762 311.259C123.197 311.572 122.861 312.092 122.882 312.728C119.926 312.739 111.931 312.946 109.711 312.45C108.729 311.434 108.756 309.931 110.933 309.342C113.02 309.832 112.449 310.562 112.999 310.676C115.592 311.211 118.49 310.848 121.762 311.259Z" fill="#B7140E"/>
<path d="M971.237 322.92L971.233 328.638C970.157 329.279 969.546 329.566 968.29 330.125C967.561 329.075 967.301 321.888 968.294 320.891C968.668 322.339 968.627 322.427 971.237 322.92Z" fill="#B7140E"/>
<path d="M121.713 304.955C123.384 304.796 122.669 304.711 123.965 305.096C125.049 306.475 125.529 311.631 123.805 312.728H122.882C122.861 312.092 123.197 311.572 121.761 311.259C121.863 309.586 121.804 308.215 121.66 306.541C122.103 305.544 122.311 305.778 121.713 304.955Z" fill="#970F0B"/>
<path d="M982.644 328.526C982.872 329.051 983.115 329.51 983.168 330.048C979.15 329.945 972.244 329.823 968.291 330.125C969.547 329.566 970.157 329.279 971.234 328.637C974.097 328.335 979.516 328.478 982.644 328.526Z" fill="#970F0B"/>
</g>
<defs>
<clipPath id="clip0_1_2887">
<rect width="362" height="1093" fill="white" transform="matrix(0 1 -1 0 1093 0)"/>
</clipPath>
</defs>
</svg>
