<svg width="391" height="263" viewBox="0 0 391 263" fill="none" xmlns="http://www.w3.org/2000/svg">
<g clip-path="url(#clip0_1_2946)">
<path d="M6.81597 66.0258C7.1418 72.4246 6.89133 81.1487 6.89133 87.662L6.88689 128.944L6.86251 171.295L6.88248 184.513C6.89134 186.211 7.57626 193.52 5.44394 193.692C4.86098 193.266 4.82994 192.809 4.65705 192.115C4.3024 181.978 4.49081 170.873 4.49525 160.692L4.47528 111.506L4.46199 83.6048C4.45978 80.332 4.12065 67.3923 4.86098 65.3036C5.43729 64.709 5.1713 64.8067 5.85843 64.7832C6.42809 65.2141 6.48349 65.3823 6.81597 66.0258Z" fill="white"/>
<path d="M382.85 77.6807C383.385 81.8327 383.202 90.2349 383.196 94.6819L383.208 122.066L383.189 168.098L383.162 182.985C383.162 185.205 383.623 191.827 382.434 193.435C381.812 193.68 382.076 193.646 381.336 193.41C380.16 191.932 380.642 184.275 380.635 182.091L380.553 162.887L380.549 104.408L380.6 87.1536C380.615 84.8085 380.78 81.9158 380.711 79.6805L380.858 79.2085C382.136 78.8419 381.011 78.4508 382.85 77.6807Z" fill="white"/>
<path d="M258.096 5.0569L257.674 5.5795C256.734 6.04699 236.574 5.87431 234.311 5.87417L161.452 5.859L141.602 5.8638C138.074 5.88652 134.319 5.96631 130.783 5.83499C130.18 5.81264 129.928 5.21081 129.553 4.68388C131.182 3.78297 151.184 4.18833 154.106 4.17778L206.577 4.10265L239.943 4.06982C245.016 4.07989 250.159 4.06116 255.234 4.13175C256.512 4.14952 257.292 4.16494 258.096 5.0569Z" fill="white"/>
<path d="M257.953 254.221C257.817 254.952 257.85 255.085 257.334 255.554C253.278 256.058 246.774 255.707 242.534 255.759C229.438 255.867 216.343 255.887 203.247 255.816L151.495 255.836C148.474 255.839 131.754 256.003 129.784 255.479C129.775 254.783 129.68 255.028 130.074 254.526C132.12 253.87 143.059 254.135 145.692 254.133L170.133 254.121C194.208 254.013 218.283 254.061 242.358 254.264C247.539 254.335 252.747 254.048 257.953 254.221Z" fill="white"/>
<path d="M385.558 11.3746C385.421 12.0628 385.293 12.8562 385.068 13.511C384.186 13.1766 379.43 13.3395 378.195 13.3479L374.346 13.4849C374.641 9.76833 374.367 6.20823 374.585 2.62528C372.272 2.85851 368.559 2.76902 366.155 2.71077C366.241 5.74169 366.201 8.38647 366.118 11.4154C367.6 11.3641 368.208 11.3577 369.71 11.5509C369.606 10.2989 369.718 8.39671 368.807 7.9152C368.299 7.647 368.264 7.43002 368.157 6.9989C368.697 6.18153 369.834 6.41714 370.738 6.4661C371.505 7.40715 371.216 11.7105 371.346 13.2606C369.564 13.148 366.06 13.386 364.927 13.1622C364.275 11.8705 364.462 3.65875 364.302 1.31304C367.637 1.20775 371.404 1.196 374.775 1.08206C375.164 1.06889 375.639 1.31094 375.959 1.55561C376.725 2.67143 375.983 10.6772 376.286 11.9364C378.053 11.2641 383.134 11.9018 385.558 11.3746Z" fill="white"/>
<path d="M111.147 4.2812C111.16 5.00485 111.207 5.29948 110.693 5.76097C106.253 6.11589 62.8572 6.15836 61.7822 5.66777C61.8043 5.32775 61.862 4.92199 61.9019 4.57721L62.292 4.26636C65.9293 3.94674 110.238 3.94503 111.147 4.2812Z" fill="white"/>
<path d="M325.935 4.89212C325.83 5.11716 325.578 5.6197 325.378 5.65067C322.914 6.03066 316.829 5.84792 314.564 5.84112L285.467 5.88028C282.977 5.88248 279.498 5.95889 276.933 5.82701C276.522 5.80589 276.283 5.1923 276.054 4.78918C277.598 3.69316 290.002 4.0658 292.727 4.06642L320.394 4.09099C321.585 4.09206 324.011 4.01265 325.265 4.21967C325.531 4.48667 325.754 4.71082 325.935 4.89212Z" fill="white"/>
<path d="M325.972 255.006L325.463 255.519C323.451 256.021 312.2 255.854 309.385 255.861C299.492 255.854 289.593 255.901 279.7 255.85C278.513 255.843 277.02 255.959 276.164 255.066L276.539 254.495C277.155 254.161 279.371 254.179 280.189 254.175C295.119 254.099 310.064 254.095 324.99 254.173C325.542 254.175 325.662 254.581 325.972 255.006Z" fill="white"/>
<path d="M111.353 255.086C110.998 255.432 110.889 255.597 110.333 255.625C100.186 256.134 90.0337 255.59 79.8841 255.803C77.2575 255.859 74.5955 255.874 71.9666 255.852C68.7903 255.828 65.4921 255.999 62.3512 255.55C62.3512 255.55 61.7971 255.012 61.7439 254.959C61.8325 254.832 62.083 254.59 62.2027 254.466C64.0247 254.146 109.683 253.928 110.579 254.199C111.011 254.33 111.133 254.724 111.353 255.086Z" fill="white"/>
<path d="M21.9442 257.675C21.5474 258.182 21.4942 258.091 21.4122 258.639L22.0151 258.848L18.2381 259.041C19.5836 259.075 21.2327 259.028 22.5205 259.361C19.0006 259.455 15.2281 259.375 11.7858 259.519C12.0606 255.809 11.8412 252.293 12.0185 248.71C8.56509 248.846 5.04521 248.815 1.58517 248.824C1.35022 245.061 1.75807 240.571 1.34136 236.991C4.51768 236.886 8.42766 237.02 11.6616 237.035C11.9741 237.206 11.9786 237.271 12.1936 237.564L11.8678 238.481C8.54294 238.794 6.41061 238.786 3.08578 238.512C3.16115 240.8 3.40496 245.452 3.02815 247.455C6.20226 247.229 10.1366 247.253 13.3794 247.178C13.1312 249.697 13.3063 255.081 13.2841 257.893C16.0859 257.691 19.1336 257.686 21.9442 257.675Z" fill="white"/>
<path d="M385.096 1.07666L386.035 1.11026C387.054 2.33002 386.482 7.58324 386.551 9.5804C384.761 9.31227 383.22 9.26098 381.418 9.47082C380.435 9.58531 379.704 9.6344 378.92 8.9442C378.073 7.52578 378.454 5.84405 378.595 4.16189C378.523 3.16713 378.398 2.20786 378.274 1.22003C380.332 1.24437 383.117 1.33387 385.096 1.07666ZM380.002 2.9915C379.905 4.25656 379.93 6.24883 379.879 7.6105C381.765 7.53138 383.166 7.46236 385.042 7.6039C385.001 6.06209 384.911 4.58582 385.122 3.05625C384.295 2.50186 381.4 2.67036 380.279 2.72154L380.002 2.9915Z" fill="white"/>
<path d="M385.096 1.07666C385.316 2.29846 385.564 2.21365 385.122 3.05625C384.295 2.50186 381.4 2.67036 380.278 2.72154L380.002 2.9915L379.519 3.67247L379.154 3.65375L378.849 2.81413C378.806 3.28901 378.84 3.83603 378.595 4.16189C378.523 3.16713 378.398 2.20786 378.274 1.22003C380.332 1.24437 383.117 1.33387 385.096 1.07666Z" fill="white"/>
<path d="M9.59766 0.955566C9.38708 3.57851 9.50011 6.85535 9.52449 9.53339C7.07963 9.20355 4.074 9.30342 1.61141 9.48175C1.3831 7.88089 1.55821 3.40574 1.38532 1.18261C4.03188 1.18007 6.98212 1.21087 9.59766 0.955566ZM3.09427 2.67267C3.1386 3.91148 3.28933 6.38028 3.1253 7.49419C4.77885 7.65705 6.37921 7.4562 8.03054 7.64808C8.00837 5.99084 7.96404 4.26235 7.9995 2.61263C6.28832 2.7081 4.80323 2.83511 3.09427 2.67267Z" fill="white"/>
<path d="M386.398 250.776C386.252 253.12 386.578 255.999 386.347 258.391C386.3 258.873 386.117 258.884 385.756 259.1C384.028 259.035 379.545 259.45 378.72 258.609C378.017 257.154 378.319 255.035 378.389 253.355L378.111 251.023C381.022 251.01 383.486 250.979 386.398 250.776ZM384.649 252.756C383.971 252.771 380.242 252.8 379.829 252.873C379.999 254.481 379.909 256.052 379.86 257.669C381.542 257.4 383.024 257.805 384.417 257.547L384.71 257.049C384.534 255.301 384.56 254.508 384.649 252.756Z" fill="white"/>
<path d="M384.71 257.049C384.889 257.8 385.347 258.431 385.756 259.099C384.028 259.035 379.545 259.45 378.72 258.608C378.017 257.154 378.319 255.034 378.389 253.355C378.79 253.046 378.748 252.804 378.669 252.391L378.951 252.416L379.025 252.658C379.379 252.58 379.415 252.687 379.829 252.873C379.998 254.481 379.909 256.052 379.86 257.669C381.541 257.4 383.024 257.804 384.416 257.547L384.71 257.049Z" fill="white"/>
<path d="M385.557 11.3745L386.224 11.555C386.799 12.5604 386.539 21.8599 386.523 23.7318C382.518 23.423 378.253 23.6474 374.227 23.7047C374.557 21.0826 374.533 19.359 374.281 16.7079C376.195 16.577 379.457 16.1047 381.052 16.9327C381.548 17.5629 381.426 17.2586 381.478 18.1057C381.136 18.8314 381.324 18.73 380.759 18.9551C378.105 18.0963 378.697 18.3467 376.132 18.0043C376.121 19.2392 376.139 20.5987 376.082 21.8217C378.435 21.7655 382.744 21.6272 385.019 21.8452C384.925 20.2423 384.809 14.9752 385.068 13.5109C385.292 12.8561 385.421 12.0627 385.557 11.3745Z" fill="white"/>
<path d="M383.075 237.113C383.955 237.053 385.453 236.851 386.218 237.126C386.565 240.794 386.138 245.179 386.442 248.797C383.177 248.795 378.773 248.915 375.601 248.71C375.664 250.385 375.954 257.86 375.646 259.055C374.51 258.044 374.723 257.704 374.233 257.156C373.712 255.736 374.22 250.139 373.707 247.282C376.855 247.271 381.808 247.111 384.775 247.42C384.685 244.801 384.869 241.28 384.59 238.815C384.08 238.444 383.342 238.55 382.66 238.55C383.097 238.213 383.436 238.182 383.774 237.704L383.075 237.113Z" fill="white"/>
<path d="M55.7773 4.78066C55.6887 5.07822 55.4803 5.79285 55.1079 5.80816C45.7386 6.19453 36.2584 6.0242 26.8779 5.9001C26.459 5.89454 25.8938 5.53008 25.5635 5.29875L25.7475 4.92202C26.8026 3.95756 54.443 3.85021 55.7773 4.78066Z" fill="white"/>
<path d="M362.557 254.259C362.447 254.934 362.477 255.081 362.046 255.565C361.279 255.723 358.594 255.952 357.922 255.885C354.329 255.523 334.625 256.594 332.677 255.438C332.66 254.941 332.617 254.812 332.87 254.377C335.79 254.001 340.99 254.126 344.122 254.123C350.267 254.086 356.413 254.132 362.557 254.259Z" fill="white"/>
<path d="M362.314 4.843C362.063 5.37467 362.05 5.38895 361.601 5.75713C359.947 6.00156 354.383 6.14263 352.776 6.00969C349.206 5.71432 334.409 6.67512 332.364 5.38808C332.753 4.82803 333.07 4.57831 333.771 4.49413C337.462 4.13548 342.203 4.1283 345.856 4.20856C348.403 4.26451 360.963 3.87799 362.314 4.843Z" fill="white"/>
<path d="M55.5781 254.419C55.5138 254.806 55.4119 255.057 55.2811 255.421C53.6697 256.647 30.6973 255.847 27.091 255.872C26.6831 255.876 25.9805 255.568 25.597 255.35C25.5904 255.119 25.6458 255.03 25.7145 254.795C26.9513 254.168 51.9541 254.484 55.5781 254.419Z" fill="white"/>
<path d="M382.921 208.051C383.015 211.208 383.207 232.784 382.447 234.525L382.107 234.572C381.512 233.966 381.567 233.133 381.494 232.253C381.581 224.785 381.452 217.299 381.466 209.829C381.468 208.535 381.312 205.852 382.164 204.934L382.541 205.155C382.89 205.694 382.88 207.31 382.921 208.051Z" fill="white"/>
<path d="M382.945 25.326C383.088 26.4269 383.176 31.3097 383.084 32.4361C382.856 35.2545 383.659 53.9788 382.452 55.0154L381.781 54.8484C381.631 52.5118 381.498 26.2265 381.845 25.3857C382.498 25.0823 382.207 25.1081 382.945 25.326Z" fill="white"/>
<path d="M363.901 247.238C365.619 247.278 369.348 246.949 370.679 247.265C371.192 248.549 371.122 252.438 370.739 253.829C370.288 254.277 370.222 254.311 369.592 254.397C368.995 254.264 368.979 254.193 368.559 253.704C368.46 252.805 368.661 252.856 369.255 251.892L369.325 248.773C367.931 248.786 367.28 248.695 365.922 248.493C365.83 251.629 365.759 254.768 365.709 257.907C365.528 258.184 364.938 258.969 364.914 259.2C364.652 259.157 364.583 259.089 364.335 258.966C363.647 257.676 364.064 249.61 363.901 247.238Z" fill="white"/>
<path d="M23.6679 247.24C23.5659 249.468 24.2043 258.182 23.26 259.393L22.5197 259.362C21.2319 259.029 19.5828 259.075 18.2374 259.042L22.0143 258.849L21.4114 258.64C21.4935 258.091 21.5467 258.182 21.9434 257.676C22.154 254.275 21.5289 252.676 22.1518 248.757C20.6578 248.837 19.1085 248.531 18.0113 249.653C17.6145 251.481 19.882 252.16 19.2547 253.722C16.3887 255.175 16.8343 251.809 16.7855 250.063C16.7633 249.206 16.7899 248.324 16.7966 247.462C19.1572 247.345 21.2386 247.491 23.6679 247.24Z" fill="white"/>
<path d="M6.09111 205.907C6.20859 208.921 6.69622 234.754 5.44608 235.276L4.93186 234.945C4.7368 228.594 4.78555 213.044 5.00277 205.9C5.00942 205.672 5.3264 205.656 5.6212 205.575L6.09111 205.907Z" fill="white"/>
<path d="M6.13541 25.4896C6.31938 28.551 6.38366 53.6144 5.71648 54.8217L5.32858 54.9056L4.96063 54.5798C4.71459 49.1647 4.79882 31.7874 5.0227 25.333C5.02935 25.1093 5.33967 25.1369 5.63669 25.0967L6.13541 25.4896Z" fill="white"/>
<path d="M23.5114 1.83154C23.784 5.60597 23.6776 9.52954 23.7441 13.3246C21.419 13.1133 19.1714 12.9899 16.864 13.3994C16.8529 12.072 16.8352 10.6902 16.7199 9.37245C16.4606 6.37914 17.6154 6.45297 19.925 6.36865C19.2423 7.63936 18.3335 8.94787 18.5241 10.3694C19.4285 11.7974 20.4171 11.4595 22.0241 11.604C21.818 9.90622 21.7093 4.28826 22.2746 2.79529C22.9151 2.649 23.0614 2.3639 23.5114 1.83154Z" fill="white"/>
<path d="M12.156 22.0019C12.6681 22.2077 12.9163 23.1473 13.0781 23.6311C9.67572 23.5309 4.79265 23.4654 1.41684 23.7377C1.44566 21.2635 1.46116 18.7892 1.46338 16.3148C1.45895 15.2752 1.36364 12.887 1.46338 12.0054L1.7848 11.7441C1.98872 11.7816 2.16604 11.8549 2.36553 11.9234L1.90225 12.5357L2.8842 12.6764L3.09698 13.0356C3.15904 15.4848 3.37848 19.4729 3.14796 21.7901C5.59281 21.7368 9.94169 21.5589 12.156 22.0019Z" fill="white"/>
<path d="M380.711 79.6809C380.231 78.7097 380.716 67.7828 380.661 65.9873C380.654 65.7541 380.851 65.5078 380.997 65.333C381.465 65.117 382.341 64.6872 382.551 65.3394C383.353 67.8355 383.27 75.2617 382.85 77.6811C381.011 78.4512 382.137 78.8424 380.858 79.2089L380.711 79.6809Z" fill="white"/>
<path d="M383.075 237.113L383.773 237.704C383.436 238.182 383.096 238.213 382.66 238.55C380.52 238.681 378.028 238.564 375.858 238.513L375.79 242.04L378.823 242.184L380.778 240.205L380.793 243.713C378.543 243.757 376.358 243.781 374.111 243.977C374.102 242.202 373.882 238.992 374.664 237.566C375.477 236.747 376.589 237.007 377.648 237.093C379.509 237.246 381.214 237.26 383.075 237.113Z" fill="white"/>
<path d="M13.2708 9.18414C13.3173 10.5918 13.3329 12.0002 13.3218 13.4085C11.1407 13.3734 4.69716 13.4689 3.09681 13.0357L2.88403 12.6765L1.90208 12.5358L2.36536 11.9235C2.16587 11.855 1.98855 11.7817 1.78463 11.7442C2.81311 11.385 10.5954 11.6639 12.045 11.7452C11.8566 9.50612 12.0982 3.11151 11.5131 1.48145C11.7591 1.54303 12.0672 1.61996 12.4351 1.71224C13.9202 3.64406 12.116 7.25645 13.2708 9.18414Z" fill="white"/>
<path d="M2.15859 251.078C4.72536 251.698 8.08565 250.843 9.16068 251.522C9.98302 252.613 9.55968 257.946 9.3757 259.439C9.30699 258.677 9.42446 258.657 9.00553 258.093L8.34056 258.313C8.18097 258.173 8.06571 258.108 7.97926 257.94C8.11004 256.591 7.99701 254.203 7.96376 252.76C6.97296 252.786 3.90524 252.726 3.27352 252.937L3.03634 253.484L2.61078 253.704C2.49108 252.735 2.36251 252.033 2.15859 251.078Z" fill="white"/>
<path d="M11.5128 1.48149C11.6769 1.41961 11.8453 1.36595 12.0138 1.32071C12.8095 1.10936 21.7179 1.21648 23.1697 1.15723C23.3182 1.24418 23.4667 1.33112 23.6152 1.41807L23.511 1.83129C23.0611 2.36365 22.9148 2.64875 22.2742 2.79504C20.8689 2.4867 15.5802 2.80504 13.3725 2.62258L13.2706 9.18419C12.1157 7.25649 13.92 3.6441 12.4349 1.71229C12.067 1.62001 11.7589 1.54307 11.5128 1.48149Z" fill="white"/>
<path d="M13.3171 16.3325C13.3083 18.016 13.3836 22.1754 13.0778 23.6311C12.916 23.1473 12.6677 22.2077 12.1557 22.002C11.8631 20.6379 11.9872 19.5678 12.0803 18.1983C10.9698 18.1753 9.71967 18.1244 8.60696 18.1938C7.88215 18.2391 7.98633 18.5789 7.41667 19.3556L7.01549 19.3085C6.51233 18.6598 6.24634 17.9892 6.56331 17.2308C7.78906 16.3142 11.1228 16.7579 13.3171 16.3325Z" fill="white"/>
<path d="M13.2568 243.355L13.1416 243.793C12.0444 244.35 7.77306 244.321 6.667 243.342C6.29462 242.475 6.36557 242.855 6.46753 241.86C7.76643 240.156 9.24708 243.475 11.754 242.196C12.1463 241.667 12.0355 241.107 12.02 240.41L12.1773 240.427C12.9953 241.245 11.5989 241.905 13.2568 243.355Z" fill="white"/>
<path d="M375.646 259.055C373.223 259.377 368.32 258.735 364.914 259.199C364.938 258.968 365.528 258.184 365.709 257.907C367.357 257.405 371.286 257.818 373.162 257.687C373.957 257.629 373.834 257.644 374.233 257.156C374.724 257.704 374.511 258.044 375.646 259.055Z" fill="white"/>
<path d="M3.03655 253.484C3.12965 254.933 3.29589 256.394 2.97892 257.816L3.05652 259.073L2.62428 259.424L1.89283 259.408C1.30544 258.5 1.27217 251.954 1.78863 251.21L2.15881 251.079C2.36273 252.034 2.4913 252.736 2.61099 253.704L3.03655 253.484Z" fill="white"/>
<path d="M9.37598 259.439C7.33896 259.441 4.60372 259.528 2.62434 259.424L3.05658 259.073L2.97898 257.815C4.23133 257.753 6.87126 257.569 7.97954 257.94C8.06598 258.109 8.18124 258.173 8.34084 258.313L9.0058 258.093C9.42473 258.657 9.30726 258.677 9.37598 259.439Z" fill="white"/>
<path d="M11.661 237.036C12.224 236.964 12.2772 236.936 12.8092 237.087C13.6648 238.086 13.2858 241.887 13.2569 243.355C11.599 241.905 12.9954 241.245 12.1775 240.427L12.0201 240.41C11.9935 239.952 11.9625 238.877 11.8672 238.482L12.193 237.564C11.978 237.271 11.9735 237.207 11.661 237.036Z" fill="white"/>
</g>
<defs>
<clipPath id="clip0_1_2946">
<rect width="263" height="391" fill="white" transform="matrix(0 1 -1 0 391 0)"/>
</clipPath>
</defs>
</svg>
